# xmcd
#
# Track frame offsets: 
#        150
#        12802
#        23992
#        38087
#        46790
#        54630
#        65977
#        76660
#        85560
#        97227
#        107935
#        118450
#
# Disc length: 1771 seconds
#
# Revision: 0
# Processed by: cddbd v1.4PL0 Copyright (c) Steve Scherf et al.
# Submitted via: ExactAudioCopy v0.90b2
#
DISCID=9b06e90c
DTITLE=Johnny Horton - 36 All-Time Greatest Hits - Disk 3
DYEAR=1900
DGENRE=Country
TTITLE0=Johnny Freedom ("Freedomland")
TTITLE1=Jim Bridger
TTITLE2=Comanche (The Brave Horse)
TTITLE3=Snow Shoe Thompson
TTITLE4=O'Leary's Cow
TTITLE5=The Battle Of New Orleans
TTITLE6=John Paul Jones
TTITLE7=Young Abe Lincoln (Make A Tall, Tall Man)
TTITLE8=The Battle Of Bull Run
TTITLE9=The Sinking Of The Reuben James
TTITLE10=Johnny Reb
TTITLE11=Sink The Bismark
EXTD=
EXTT0=
EXTT1=
EXTT2=
EXTT3=
EXTT4=
EXTT5=
EXTT6=
EXTT7=
EXTT8=
EXTT9=
EXTT10=
EXTT11=
PLAYORDER=
